<svg xmlns="http://www.w3.org/2000/svg" viewBox="0 0 32 32" role="img" aria-label="ع">
  <rect width="32" height="32" rx="8" fill="#0d1b2a"/>
  <rect x="1.25" y="1.25" width="29.5" height="29.5" rx="7" fill="none" stroke="#c4962a" stroke-width="1.5"/>
  <!-- Arabic letter Ain (ع): loop + leftward tail -->
  <path
    fill="#e8c66b"
    d="M19.1 6.1c-3.95 0-6.9 2.7-6.9 6.2 0 1.95 1 3.7 2.55 4.8L10.4 25.3c-.75 1.7.4 3.5 2.55 3.5h9.4c2.4 0 3.55-2.25 2.65-4.15l-3.35-7.15c2.7-1.15 4.45-3.55 4.45-6.55 0-3.5-3-6.2-6.9-6.2-.7 0-1.4.1-2.05.3-.4-.13-.85-.2-1.05-.2z"
  />
  <circle cx="18.6" cy="12.15" r="2.85" fill="#0d1b2a"/>
</svg>
